<svg width="1600" height="860" viewBox="0 0 1600 860" fill="none" xmlns="http://www.w3.org/2000/svg">
  <rect width="1600" height="860" fill="#08111F"/>
  <text x="56" y="70" fill="#F8FBFF" font-size="36" font-weight="700" font-family="Arial, PingFang SC, Microsoft YaHei">系统架构</text>

  <rect x="56" y="114" width="1488" height="170" rx="24" fill="#0F1C33" stroke="#244878"/>
  <text x="88" y="160" fill="#F8FBFF" font-size="28" font-weight="700" font-family="Arial, PingFang SC, Microsoft YaHei">运行入口层</text>
  <rect x="88" y="186" width="264" height="72" rx="16" fill="#EEF4FF"/>
  <rect x="382" y="186" width="264" height="72" rx="16" fill="#EEF4FF"/>
  <rect x="676" y="186" width="264" height="72" rx="16" fill="#EEF4FF"/>
  <rect x="970" y="186" width="264" height="72" rx="16" fill="#EEF4FF"/>
  <rect x="1264" y="186" width="248" height="72" rx="16" fill="#EEF4FF"/>
  <text x="176" y="230" fill="#1747A6" font-size="24" font-weight="700" font-family="Arial, PingFang SC, Microsoft YaHei">app.py</text>
  <text x="444" y="230" fill="#1747A6" font-size="24" font-weight="700" font-family="Arial, PingFang SC, Microsoft YaHei">config.yaml</text>
  <text x="718" y="230" fill="#1747A6" font-size="24" font-weight="700" font-family="Arial, PingFang SC, Microsoft YaHei">热键控制</text>
  <text x="1044" y="230" fill="#1747A6" font-size="24" font-weight="700" font-family="Arial, PingFang SC, Microsoft YaHei">状态浮窗</text>
  <text x="1324" y="230" fill="#1747A6" font-size="24" font-weight="700" font-family="Arial, PingFang SC, Microsoft YaHei">日志与发布</text>

  <rect x="56" y="326" width="1488" height="230" rx="24" fill="#0F1C33" stroke="#244878"/>
  <text x="88" y="372" fill="#F8FBFF" font-size="28" font-weight="700" font-family="Arial, PingFang SC, Microsoft YaHei">调度与自动化核心</text>
  <rect x="92" y="402" width="280" height="124" rx="18" fill="#12284B"/>
  <rect x="404" y="402" width="280" height="124" rx="18" fill="#12284B"/>
  <rect x="716" y="402" width="280" height="124" rx="18" fill="#12284B"/>
  <rect x="1028" y="402" width="220" height="124" rx="18" fill="#12284B"/>
  <rect x="1280" y="402" width="228" height="124" rx="18" fill="#12284B"/>
  <text x="160" y="446" fill="#EAF1FF" font-size="24" font-weight="700" font-family="Arial, PingFang SC, Microsoft YaHei">scheduler.py</text>
  <text x="118" y="480" fill="#AFC0E0" font-size="20" font-family="Arial, PingFang SC, Microsoft YaHei">状态机 / 节奏控制 / 热键协调</text>
  <text x="476" y="446" fill="#EAF1FF" font-size="24" font-weight="700" font-family="Arial, PingFang SC, Microsoft YaHei">controller.py</text>
  <text x="438" y="480" fill="#AFC0E0" font-size="20" font-family="Arial, PingFang SC, Microsoft YaHei">鼠标点击 / 双击 / 恢复动作执行</text>
  <text x="796" y="446" fill="#EAF1FF" font-size="24" font-weight="700" font-family="Arial, PingFang SC, Microsoft YaHei">detector.py</text>
  <text x="760" y="480" fill="#AFC0E0" font-size="20" font-family="Arial, PingFang SC, Microsoft YaHei">黑屏 / 失败页 / 返回状态识别</text>
  <text x="1064" y="446" fill="#EAF1FF" font-size="24" font-weight="700" font-family="Arial, PingFang SC, Microsoft YaHei">grid_mapper.py</text>
  <text x="1048" y="480" fill="#AFC0E0" font-size="20" font-family="Arial, PingFang SC, Microsoft YaHei">宫格映射</text>
  <text x="1332" y="446" fill="#EAF1FF" font-size="24" font-weight="700" font-family="Arial, PingFang SC, Microsoft YaHei">layout_switcher.py</text>
  <text x="1312" y="480" fill="#AFC0E0" font-size="20" font-family="Arial, PingFang SC, Microsoft YaHei">布局切换与固定宫格</text>

  <rect x="56" y="596" width="1488" height="204" rx="24" fill="#0F1C33" stroke="#244878"/>
  <text x="88" y="642" fill="#F8FBFF" font-size="28" font-weight="700" font-family="Arial, PingFang SC, Microsoft YaHei">感知与扩展层</text>
  <rect x="92" y="676" width="360" height="84" rx="16" fill="#EEF4FF"/>
  <rect x="488" y="676" width="360" height="84" rx="16" fill="#EEF4FF"/>
  <rect x="884" y="676" width="300" height="84" rx="16" fill="#EEF4FF"/>
  <rect x="1220" y="676" width="288" height="84" rx="16" fill="#EEF4FF"/>
  <text x="164" y="728" fill="#1747A6" font-size="24" font-weight="700" font-family="Arial, PingFang SC, Microsoft YaHei">window_manager.py</text>
  <text x="534" y="728" fill="#1747A6" font-size="24" font-weight="700" font-family="Arial, PingFang SC, Microsoft YaHei">favorites_reader.py</text>
  <text x="938" y="728" fill="#1747A6" font-size="24" font-weight="700" font-family="Arial, PingFang SC, Microsoft YaHei">native_runtime</text>
  <text x="1274" y="728" fill="#1747A6" font-size="24" font-weight="700" font-family="Arial, PingFang SC, Microsoft YaHei">build_release.py</text>

  <g stroke="#6FA3FF" stroke-width="4" stroke-linecap="round">
    <path d="M514 258V326"/>
    <path d="M808 258V326"/>
    <path d="M1102 258V326"/>
    <path d="M1220 526V596"/>
    <path d="M1028 526V676"/>
    <path d="M560 526V676"/>
  </g>
</svg>
