<svg width="1600" height="560" viewBox="0 0 1600 560" fill="none" xmlns="http://www.w3.org/2000/svg">
  <rect width="1600" height="560" rx="24" fill="#0B1220"/>
  <text x="60" y="78" fill="#F8FBFF" font-size="36" font-weight="700" font-family="Arial, PingFang SC, Microsoft YaHei">轮询执行流程</text>
  <g font-family="Arial, PingFang SC, Microsoft YaHei" font-size="24">
    <rect x="60" y="150" width="220" height="128" rx="20" fill="#EEF4FF"/>
    <text x="114" y="220" fill="#1747A6" font-weight="700">单击选中</text>
    <text x="88" y="252" fill="#42526B">定位目标宫格并激活</text>

    <rect x="350" y="150" width="220" height="128" rx="20" fill="#EEF4FF"/>
    <text x="392" y="220" fill="#1747A6" font-weight="700">等待稳定</text>
    <text x="398" y="252" fill="#42526B">避免误判和漂移</text>

    <rect x="640" y="150" width="220" height="128" rx="20" fill="#EEF4FF"/>
    <text x="694" y="220" fill="#1747A6" font-weight="700">双击放大</text>
    <text x="678" y="252" fill="#42526B">进入单路重点查看</text>

    <rect x="930" y="150" width="220" height="128" rx="20" fill="#EEF4FF"/>
    <text x="982" y="220" fill="#1747A6" font-weight="700">放大停留</text>
    <text x="972" y="252" fill="#42526B">值班画面观察窗口</text>

    <rect x="1220" y="150" width="220" height="128" rx="20" fill="#EEF4FF"/>
    <text x="1262" y="220" fill="#1747A6" font-weight="700">双击返回</text>
    <text x="1258" y="252" fill="#42526B">回到宫格继续调度</text>

    <rect x="820" y="360" width="260" height="124" rx="20" fill="#10203C" stroke="#2B7FFF" stroke-width="2"/>
    <text x="874" y="420" fill="#EAF1FF" font-weight="700">异常检测与恢复</text>
    <text x="860" y="454" fill="#AFC0E0">黑屏 / 预览失败 / 前台漂移</text>

    <rect x="1160" y="360" width="280" height="124" rx="20" fill="#10203C" stroke="#2B7FFF" stroke-width="2"/>
    <text x="1226" y="420" fill="#EAF1FF" font-weight="700">人工监管</text>
    <text x="1196" y="454" fill="#AFC0E0">暂停 / 步进 / 紧急恢复 / 安全退出</text>
  </g>
  <g stroke="#6FA3FF" stroke-width="4" stroke-linecap="round">
    <path d="M280 214H350"/>
    <path d="M570 214H640"/>
    <path d="M860 214H930"/>
    <path d="M1150 214H1220"/>
    <path d="M1330 278V322H950V360"/>
    <path d="M1440 422H1160"/>
  </g>
  <g fill="#6FA3FF">
    <path d="M338 204L350 214L338 224"/>
    <path d="M628 204L640 214L628 224"/>
    <path d="M918 204L930 214L918 224"/>
    <path d="M1208 204L1220 214L1208 224"/>
    <path d="M940 348L950 360L960 348"/>
    <path d="M1172 412L1160 422L1172 432"/>
  </g>
</svg>
